<mxfile host="Electron" modified="2024-01-25T08:56:25.064Z" agent="Mozilla/5.0 (Macintosh; Intel Mac OS X 10_15_7) AppleWebKit/537.36 (KHTML, like Gecko) draw.io/22.1.18 Chrome/120.0.6099.199 Electron/28.1.2 Safari/537.36" etag="RYzEIspFry4KWL3DwCiY" version="22.1.18" type="device" pages="2">
  <diagram name="Brainstorming" id="rvCeuk90Vkt9wyn-NFRs">
    <mxGraphModel dx="1120" dy="1219" grid="0" gridSize="10" guides="1" tooltips="1" connect="1" arrows="1" fold="1" page="0" pageScale="1" pageWidth="827" pageHeight="1169" math="0" shadow="0">
      <root>
        <mxCell id="0" />
        <mxCell id="1" parent="0" />
        <mxCell id="iYV_yutT996jwubmmKbc-1" value="Total Activity Metrics&lt;br&gt;- App Name&lt;br&gt;- Duration&lt;br&gt;- Number of Pick-ups" style="text;html=1;align=center;verticalAlign=middle;resizable=0;points=[];autosize=1;strokeColor=#001DBC;fillColor=#0050ef;fontSize=20;fontFamily=Architects Daughter;fontColor=#ffffff;" parent="1" vertex="1">
          <mxGeometry x="384" y="-20" width="230" height="110" as="geometry" />
        </mxCell>
        <mxCell id="iYV_yutT996jwubmmKbc-4" value="" style="edgeStyle=orthogonalEdgeStyle;rounded=0;sketch=1;hachureGap=4;jiggle=2;curveFitting=1;orthogonalLoop=1;jettySize=auto;html=1;fontFamily=Architects Daughter;fontSource=https%3A%2F%2Ffonts.googleapis.com%2Fcss%3Ffamily%3DArchitects%2BDaughter;fontSize=16;" parent="1" source="iYV_yutT996jwubmmKbc-2" target="iYV_yutT996jwubmmKbc-3" edge="1">
          <mxGeometry relative="1" as="geometry" />
        </mxCell>
        <mxCell id="iYV_yutT996jwubmmKbc-2" value="Focus Blocks&lt;br&gt;- start&lt;br&gt;- end&lt;br&gt;- appGroup" style="text;html=1;align=center;verticalAlign=middle;resizable=0;points=[];autosize=1;strokeColor=#2D7600;fillColor=#60a917;fontSize=20;fontFamily=Architects Daughter;fontColor=#ffffff;" parent="1" vertex="1">
          <mxGeometry x="747" y="-19" width="148" height="108" as="geometry" />
        </mxCell>
        <mxCell id="iYV_yutT996jwubmmKbc-3" value="AppGroup&lt;br&gt;- groupId&lt;br&gt;- appIds&lt;br&gt;- categoryIds&lt;br&gt;Name of group" style="text;html=1;align=center;verticalAlign=middle;resizable=0;points=[];autosize=1;strokeColor=#A50040;fillColor=#d80073;fontSize=20;fontFamily=Architects Daughter;fontColor=#ffffff;" parent="1" vertex="1">
          <mxGeometry x="741" y="137" width="160" height="132" as="geometry" />
        </mxCell>
        <mxCell id="iYV_yutT996jwubmmKbc-5" value="Reporting / Daily Summary" style="text;html=1;align=center;verticalAlign=middle;resizable=0;points=[];autosize=1;strokeColor=none;fillColor=none;fontSize=20;fontFamily=Architects Daughter;" parent="1" vertex="1">
          <mxGeometry x="365" y="-72" width="268" height="36" as="geometry" />
        </mxCell>
        <mxCell id="iYV_yutT996jwubmmKbc-6" value="Scheduled Blocking" style="text;html=1;align=center;verticalAlign=middle;resizable=0;points=[];autosize=1;strokeColor=none;fillColor=none;fontSize=20;fontFamily=Architects Daughter;" parent="1" vertex="1">
          <mxGeometry x="704" y="-83" width="194" height="36" as="geometry" />
        </mxCell>
      </root>
    </mxGraphModel>
  </diagram>
  <diagram id="UNxsHe-KAoIoSDoBAK5R" name="Sequence Diagram">
    <mxGraphModel dx="3368" dy="2164" grid="0" gridSize="10" guides="1" tooltips="1" connect="1" arrows="1" fold="1" page="0" pageScale="1" pageWidth="827" pageHeight="1169" math="0" shadow="0">
      <root>
        <mxCell id="0" />
        <mxCell id="1" parent="0" />
        <mxCell id="Y8TYXMuornl3YtSkY_ep-1" value="ZenZoneApp (main)" style="text;html=1;strokeColor=none;fillColor=none;align=center;verticalAlign=middle;whiteSpace=wrap;rounded=0;fontSize=20;fontFamily=Architects Daughter;" vertex="1" parent="1">
          <mxGeometry x="119" y="178" width="208" height="30" as="geometry" />
        </mxCell>
        <mxCell id="Y8TYXMuornl3YtSkY_ep-2" value="MySchedule" style="text;html=1;strokeColor=none;fillColor=none;align=center;verticalAlign=middle;whiteSpace=wrap;rounded=0;fontSize=20;fontFamily=Architects Daughter;" vertex="1" parent="1">
          <mxGeometry x="382" y="178" width="208" height="30" as="geometry" />
        </mxCell>
        <mxCell id="Y8TYXMuornl3YtSkY_ep-3" value="Content View" style="text;html=1;strokeColor=none;fillColor=none;align=center;verticalAlign=middle;whiteSpace=wrap;rounded=0;fontSize=20;fontFamily=Architects Daughter;" vertex="1" parent="1">
          <mxGeometry x="600" y="178" width="265" height="30" as="geometry" />
        </mxCell>
        <mxCell id="Y8TYXMuornl3YtSkY_ep-4" value="MyModel" style="text;html=1;strokeColor=none;fillColor=none;align=center;verticalAlign=middle;whiteSpace=wrap;rounded=0;fontSize=20;fontFamily=Architects Daughter;" vertex="1" parent="1">
          <mxGeometry x="916" y="178" width="129" height="30" as="geometry" />
        </mxCell>
        <mxCell id="Y8TYXMuornl3YtSkY_ep-5" value="DeviceActivityMonitor" style="text;html=1;strokeColor=none;fillColor=none;align=center;verticalAlign=middle;whiteSpace=wrap;rounded=0;fontSize=20;fontFamily=Architects Daughter;" vertex="1" parent="1">
          <mxGeometry x="1116" y="178" width="129" height="30" as="geometry" />
        </mxCell>
        <mxCell id="Y8TYXMuornl3YtSkY_ep-7" value="" style="endArrow=none;html=1;rounded=0;hachureGap=4;fontFamily=Architects Daughter;fontSource=https%3A%2F%2Ffonts.googleapis.com%2Fcss%3Ffamily%3DArchitects%2BDaughter;fontSize=16;strokeWidth=4;" edge="1" parent="1">
          <mxGeometry width="50" height="50" relative="1" as="geometry">
            <mxPoint x="627" y="817" as="sourcePoint" />
            <mxPoint x="615" y="181" as="targetPoint" />
          </mxGeometry>
        </mxCell>
        <mxCell id="Y8TYXMuornl3YtSkY_ep-8" value="" style="endArrow=none;html=1;rounded=0;hachureGap=4;fontFamily=Architects Daughter;fontSource=https%3A%2F%2Ffonts.googleapis.com%2Fcss%3Ffamily%3DArchitects%2BDaughter;fontSize=16;strokeWidth=4;" edge="1" parent="1">
          <mxGeometry width="50" height="50" relative="1" as="geometry">
            <mxPoint x="402" y="823" as="sourcePoint" />
            <mxPoint x="390" y="187" as="targetPoint" />
          </mxGeometry>
        </mxCell>
        <mxCell id="Y8TYXMuornl3YtSkY_ep-9" value="" style="endArrow=none;html=1;rounded=0;hachureGap=4;fontFamily=Architects Daughter;fontSource=https%3A%2F%2Ffonts.googleapis.com%2Fcss%3Ffamily%3DArchitects%2BDaughter;fontSize=16;strokeWidth=4;" edge="1" parent="1">
          <mxGeometry width="50" height="50" relative="1" as="geometry">
            <mxPoint x="885" y="818" as="sourcePoint" />
            <mxPoint x="873" y="182" as="targetPoint" />
          </mxGeometry>
        </mxCell>
        <mxCell id="Y8TYXMuornl3YtSkY_ep-10" value="" style="endArrow=none;html=1;rounded=0;hachureGap=4;fontFamily=Architects Daughter;fontSource=https%3A%2F%2Ffonts.googleapis.com%2Fcss%3Ffamily%3DArchitects%2BDaughter;fontSize=16;strokeWidth=4;" edge="1" parent="1">
          <mxGeometry width="50" height="50" relative="1" as="geometry">
            <mxPoint x="1074" y="821" as="sourcePoint" />
            <mxPoint x="1062" y="185" as="targetPoint" />
          </mxGeometry>
        </mxCell>
        <mxCell id="Y8TYXMuornl3YtSkY_ep-11" value="" style="endArrow=none;html=1;rounded=0;hachureGap=4;fontFamily=Architects Daughter;fontSource=https%3A%2F%2Ffonts.googleapis.com%2Fcss%3Ffamily%3DArchitects%2BDaughter;fontSize=16;exitX=0;exitY=1;exitDx=0;exitDy=0;strokeWidth=3;" edge="1" parent="1">
          <mxGeometry width="50" height="50" relative="1" as="geometry">
            <mxPoint x="116" y="211.0000000000001" as="sourcePoint" />
            <mxPoint x="1919" y="211" as="targetPoint" />
          </mxGeometry>
        </mxCell>
        <mxCell id="Y8TYXMuornl3YtSkY_ep-12" value="AuthorizationCenter" style="text;html=1;align=center;verticalAlign=middle;resizable=0;points=[];autosize=1;strokeColor=none;fillColor=none;fontSize=20;fontFamily=Architects Daughter;" vertex="1" parent="1">
          <mxGeometry x="1345" y="172" width="202" height="36" as="geometry" />
        </mxCell>
        <mxCell id="Y8TYXMuornl3YtSkY_ep-13" value="" style="endArrow=none;html=1;rounded=0;hachureGap=4;fontFamily=Architects Daughter;fontSource=https%3A%2F%2Ffonts.googleapis.com%2Fcss%3Ffamily%3DArchitects%2BDaughter;fontSize=16;strokeWidth=4;" edge="1" parent="1">
          <mxGeometry width="50" height="50" relative="1" as="geometry">
            <mxPoint x="1329" y="814" as="sourcePoint" />
            <mxPoint x="1317" y="178" as="targetPoint" />
          </mxGeometry>
        </mxCell>
        <mxCell id="Y8TYXMuornl3YtSkY_ep-14" value="" style="endArrow=classic;html=1;rounded=0;sketch=1;hachureGap=4;jiggle=2;curveFitting=1;fontFamily=Architects Daughter;fontSource=https%3A%2F%2Ffonts.googleapis.com%2Fcss%3Ffamily%3DArchitects%2BDaughter;fontSize=16;" edge="1" parent="1">
          <mxGeometry width="50" height="50" relative="1" as="geometry">
            <mxPoint x="217" y="273" as="sourcePoint" />
            <mxPoint x="1485" y="266" as="targetPoint" />
          </mxGeometry>
        </mxCell>
        <mxCell id="Y8TYXMuornl3YtSkY_ep-15" value="&lt;font style=&quot;font-size: 13px;&quot;&gt;Request Access to screen-time&lt;/font&gt;" style="text;html=1;strokeColor=none;fillColor=none;align=center;verticalAlign=middle;whiteSpace=wrap;rounded=0;fontSize=20;fontFamily=Architects Daughter;" vertex="1" parent="1">
          <mxGeometry x="189" y="232" width="199" height="30" as="geometry" />
        </mxCell>
        <mxCell id="Y8TYXMuornl3YtSkY_ep-20" style="edgeStyle=orthogonalEdgeStyle;rounded=0;sketch=1;hachureGap=4;jiggle=2;curveFitting=1;orthogonalLoop=1;jettySize=auto;html=1;exitX=0;exitY=1;exitDx=0;exitDy=0;fontFamily=Architects Daughter;fontSource=https%3A%2F%2Ffonts.googleapis.com%2Fcss%3Ffamily%3DArchitects%2BDaughter;fontSize=16;endArrow=none;endFill=0;" edge="1" parent="1" source="Y8TYXMuornl3YtSkY_ep-17">
          <mxGeometry relative="1" as="geometry">
            <mxPoint x="210.70588235294144" y="363.47058823529414" as="targetPoint" />
          </mxGeometry>
        </mxCell>
        <mxCell id="Y8TYXMuornl3YtSkY_ep-17" value="" style="rounded=1;whiteSpace=wrap;html=1;sketch=1;hachureGap=4;jiggle=2;curveFitting=1;fontFamily=Architects Daughter;fontSource=https%3A%2F%2Ffonts.googleapis.com%2Fcss%3Ffamily%3DArchitects%2BDaughter;fontSize=20;" vertex="1" parent="1">
          <mxGeometry x="1486" y="262" width="14" height="60" as="geometry" />
        </mxCell>
        <mxCell id="Y8TYXMuornl3YtSkY_ep-23" style="edgeStyle=orthogonalEdgeStyle;rounded=0;sketch=1;hachureGap=4;jiggle=2;curveFitting=1;orthogonalLoop=1;jettySize=auto;html=1;exitX=0.5;exitY=1;exitDx=0;exitDy=0;fontFamily=Architects Daughter;fontSource=https%3A%2F%2Ffonts.googleapis.com%2Fcss%3Ffamily%3DArchitects%2BDaughter;fontSize=16;" edge="1" parent="1">
          <mxGeometry relative="1" as="geometry">
            <mxPoint x="279.99999999999955" y="468" as="sourcePoint" />
            <mxPoint x="279.99999999999955" y="468" as="targetPoint" />
          </mxGeometry>
        </mxCell>
        <mxCell id="Y8TYXMuornl3YtSkY_ep-24" value="Add Schedule (UI)" style="text;html=1;align=center;verticalAlign=middle;resizable=0;points=[];autosize=1;strokeColor=none;fillColor=none;fontSize=20;fontFamily=Architects Daughter;" vertex="1" parent="1">
          <mxGeometry x="661" y="416" width="175" height="36" as="geometry" />
        </mxCell>
        <mxCell id="Y8TYXMuornl3YtSkY_ep-25" value="" style="endArrow=classic;html=1;rounded=0;sketch=1;hachureGap=4;jiggle=2;curveFitting=1;fontFamily=Architects Daughter;fontSource=https%3A%2F%2Ffonts.googleapis.com%2Fcss%3Ffamily%3DArchitects%2BDaughter;fontSize=16;" edge="1" parent="1">
          <mxGeometry width="50" height="50" relative="1" as="geometry">
            <mxPoint x="751" y="461" as="sourcePoint" />
            <mxPoint x="519" y="461" as="targetPoint" />
          </mxGeometry>
        </mxCell>
        <mxCell id="Y8TYXMuornl3YtSkY_ep-26" value="" style="rounded=1;whiteSpace=wrap;html=1;sketch=1;hachureGap=4;jiggle=2;curveFitting=1;fontFamily=Architects Daughter;fontSource=https%3A%2F%2Ffonts.googleapis.com%2Fcss%3Ffamily%3DArchitects%2BDaughter;fontSize=20;" vertex="1" parent="1">
          <mxGeometry x="499" y="457" width="16" height="60" as="geometry" />
        </mxCell>
        <mxCell id="Y8TYXMuornl3YtSkY_ep-29" value="&lt;h1&gt;HOMEWORK APP FLOW - 1 SCHEDULE&lt;/h1&gt;" style="text;html=1;strokeColor=none;fillColor=none;spacing=5;spacingTop=-20;whiteSpace=wrap;overflow=hidden;rounded=0;fontSize=20;fontFamily=Architects Daughter;" vertex="1" parent="1">
          <mxGeometry x="94" y="8" width="754" height="120" as="geometry" />
        </mxCell>
        <mxCell id="Y8TYXMuornl3YtSkY_ep-30" value="Block Apps" style="text;html=1;align=center;verticalAlign=middle;resizable=0;points=[];autosize=1;strokeColor=none;fillColor=none;fontSize=20;fontFamily=Architects Daughter;" vertex="1" parent="1">
          <mxGeometry x="696" y="472" width="125" height="36" as="geometry" />
        </mxCell>
        <mxCell id="Y8TYXMuornl3YtSkY_ep-31" value="" style="endArrow=classic;html=1;rounded=0;sketch=1;hachureGap=4;jiggle=2;curveFitting=1;fontFamily=Architects Daughter;fontSource=https%3A%2F%2Ffonts.googleapis.com%2Fcss%3Ffamily%3DArchitects%2BDaughter;fontSize=16;" edge="1" parent="1">
          <mxGeometry width="50" height="50" relative="1" as="geometry">
            <mxPoint x="759" y="524" as="sourcePoint" />
            <mxPoint x="921" y="524" as="targetPoint" />
          </mxGeometry>
        </mxCell>
        <mxCell id="Y8TYXMuornl3YtSkY_ep-32" value="" style="rounded=1;whiteSpace=wrap;html=1;sketch=1;hachureGap=4;jiggle=2;curveFitting=1;fontFamily=Architects Daughter;fontSource=https%3A%2F%2Ffonts.googleapis.com%2Fcss%3Ffamily%3DArchitects%2BDaughter;fontSize=20;" vertex="1" parent="1">
          <mxGeometry x="923" y="520" width="16" height="60" as="geometry" />
        </mxCell>
        <mxCell id="Y8TYXMuornl3YtSkY_ep-33" value="ManagedSettingsStore" style="text;html=1;align=center;verticalAlign=middle;resizable=0;points=[];autosize=1;strokeColor=none;fillColor=none;fontSize=20;fontFamily=Architects Daughter;" vertex="1" parent="1">
          <mxGeometry x="1647" y="167" width="224" height="36" as="geometry" />
        </mxCell>
        <mxCell id="Y8TYXMuornl3YtSkY_ep-34" value="" style="endArrow=none;html=1;rounded=0;hachureGap=4;fontFamily=Architects Daughter;fontSource=https%3A%2F%2Ffonts.googleapis.com%2Fcss%3Ffamily%3DArchitects%2BDaughter;fontSize=16;strokeWidth=4;" edge="1" parent="1">
          <mxGeometry width="50" height="50" relative="1" as="geometry">
            <mxPoint x="1610" y="811" as="sourcePoint" />
            <mxPoint x="1598" y="175" as="targetPoint" />
          </mxGeometry>
        </mxCell>
        <mxCell id="Y8TYXMuornl3YtSkY_ep-35" value="" style="rounded=1;whiteSpace=wrap;html=1;sketch=1;hachureGap=4;jiggle=2;curveFitting=1;fontFamily=Architects Daughter;fontSource=https%3A%2F%2Ffonts.googleapis.com%2Fcss%3Ffamily%3DArchitects%2BDaughter;fontSize=20;" vertex="1" parent="1">
          <mxGeometry x="1736" y="619" width="14" height="60" as="geometry" />
        </mxCell>
        <mxCell id="Y8TYXMuornl3YtSkY_ep-38" value="Set Shield&amp;nbsp;" style="text;html=1;align=center;verticalAlign=middle;resizable=0;points=[];autosize=1;strokeColor=none;fillColor=none;fontSize=20;fontFamily=Architects Daughter;" vertex="1" parent="1">
          <mxGeometry x="1764" y="619" width="116" height="36" as="geometry" />
        </mxCell>
        <mxCell id="Y8TYXMuornl3YtSkY_ep-41" style="edgeStyle=orthogonalEdgeStyle;rounded=0;sketch=1;hachureGap=4;jiggle=2;curveFitting=1;orthogonalLoop=1;jettySize=auto;html=1;exitX=0.5;exitY=1;exitDx=0;exitDy=0;entryX=1;entryY=0.5;entryDx=0;entryDy=0;fontFamily=Architects Daughter;fontSource=https%3A%2F%2Ffonts.googleapis.com%2Fcss%3Ffamily%3DArchitects%2BDaughter;fontSize=16;" edge="1" parent="1" source="Y8TYXMuornl3YtSkY_ep-39" target="Y8TYXMuornl3YtSkY_ep-40">
          <mxGeometry relative="1" as="geometry" />
        </mxCell>
        <mxCell id="Y8TYXMuornl3YtSkY_ep-39" value="OnStart" style="text;html=1;strokeColor=none;fillColor=none;align=center;verticalAlign=middle;whiteSpace=wrap;rounded=0;fontSize=20;fontFamily=Architects Daughter;" vertex="1" parent="1">
          <mxGeometry x="1119" y="665" width="60" height="30" as="geometry" />
        </mxCell>
        <mxCell id="Y8TYXMuornl3YtSkY_ep-45" style="edgeStyle=orthogonalEdgeStyle;rounded=0;sketch=1;hachureGap=4;jiggle=2;curveFitting=1;orthogonalLoop=1;jettySize=auto;html=1;exitX=1;exitY=1;exitDx=0;exitDy=0;entryX=0;entryY=1;entryDx=0;entryDy=0;fontFamily=Architects Daughter;fontSource=https%3A%2F%2Ffonts.googleapis.com%2Fcss%3Ffamily%3DArchitects%2BDaughter;fontSize=16;" edge="1" parent="1" source="Y8TYXMuornl3YtSkY_ep-40" target="Y8TYXMuornl3YtSkY_ep-44">
          <mxGeometry relative="1" as="geometry" />
        </mxCell>
        <mxCell id="Y8TYXMuornl3YtSkY_ep-40" value="" style="rounded=1;whiteSpace=wrap;html=1;sketch=1;hachureGap=4;jiggle=2;curveFitting=1;fontFamily=Architects Daughter;fontSource=https%3A%2F%2Ffonts.googleapis.com%2Fcss%3Ffamily%3DArchitects%2BDaughter;fontSize=20;" vertex="1" parent="1">
          <mxGeometry x="947" y="679" width="16" height="60" as="geometry" />
        </mxCell>
        <mxCell id="Y8TYXMuornl3YtSkY_ep-42" value="Get Apps" style="text;html=1;align=center;verticalAlign=middle;resizable=0;points=[];autosize=1;strokeColor=none;fillColor=none;fontSize=20;fontFamily=Architects Daughter;" vertex="1" parent="1">
          <mxGeometry x="943" y="667" width="104" height="36" as="geometry" />
        </mxCell>
        <mxCell id="Y8TYXMuornl3YtSkY_ep-46" style="edgeStyle=orthogonalEdgeStyle;rounded=0;sketch=1;hachureGap=4;jiggle=2;curveFitting=1;orthogonalLoop=1;jettySize=auto;html=1;exitX=1;exitY=0.5;exitDx=0;exitDy=0;entryX=0;entryY=0.5;entryDx=0;entryDy=0;fontFamily=Architects Daughter;fontSource=https%3A%2F%2Ffonts.googleapis.com%2Fcss%3Ffamily%3DArchitects%2BDaughter;fontSize=16;" edge="1" parent="1" source="Y8TYXMuornl3YtSkY_ep-44" target="Y8TYXMuornl3YtSkY_ep-35">
          <mxGeometry relative="1" as="geometry" />
        </mxCell>
        <mxCell id="Y8TYXMuornl3YtSkY_ep-44" value="" style="rounded=1;whiteSpace=wrap;html=1;sketch=1;hachureGap=4;jiggle=2;curveFitting=1;fontFamily=Architects Daughter;fontSource=https%3A%2F%2Ffonts.googleapis.com%2Fcss%3Ffamily%3DArchitects%2BDaughter;fontSize=20;" vertex="1" parent="1">
          <mxGeometry x="1154" y="703" width="16" height="60" as="geometry" />
        </mxCell>
        <mxCell id="Y8TYXMuornl3YtSkY_ep-47" value="OnEnd" style="text;html=1;align=center;verticalAlign=middle;resizable=0;points=[];autosize=1;strokeColor=none;fillColor=none;fontSize=20;fontFamily=Architects Daughter;" vertex="1" parent="1">
          <mxGeometry x="1116" y="823" width="74" height="36" as="geometry" />
        </mxCell>
        <mxCell id="Y8TYXMuornl3YtSkY_ep-49" style="edgeStyle=orthogonalEdgeStyle;rounded=0;sketch=1;hachureGap=4;jiggle=2;curveFitting=1;orthogonalLoop=1;jettySize=auto;html=1;exitX=1;exitY=0.5;exitDx=0;exitDy=0;fontFamily=Architects Daughter;fontSource=https%3A%2F%2Ffonts.googleapis.com%2Fcss%3Ffamily%3DArchitects%2BDaughter;fontSize=16;" edge="1" parent="1" source="Y8TYXMuornl3YtSkY_ep-48">
          <mxGeometry relative="1" as="geometry">
            <mxPoint x="1742.2222222222217" y="888.5555555555557" as="targetPoint" />
          </mxGeometry>
        </mxCell>
        <mxCell id="Y8TYXMuornl3YtSkY_ep-48" value="" style="rounded=1;whiteSpace=wrap;html=1;sketch=1;hachureGap=4;jiggle=2;curveFitting=1;fontFamily=Architects Daughter;fontSource=https%3A%2F%2Ffonts.googleapis.com%2Fcss%3Ffamily%3DArchitects%2BDaughter;fontSize=20;" vertex="1" parent="1">
          <mxGeometry x="1148" y="859" width="16" height="60" as="geometry" />
        </mxCell>
        <mxCell id="Y8TYXMuornl3YtSkY_ep-50" value="" style="rounded=1;whiteSpace=wrap;html=1;sketch=1;hachureGap=4;jiggle=2;curveFitting=1;fontFamily=Architects Daughter;fontSource=https%3A%2F%2Ffonts.googleapis.com%2Fcss%3Ffamily%3DArchitects%2BDaughter;fontSize=20;" vertex="1" parent="1">
          <mxGeometry x="1745" y="863" width="14" height="60" as="geometry" />
        </mxCell>
        <mxCell id="Y8TYXMuornl3YtSkY_ep-51" value="Clear Shield" style="text;html=1;align=center;verticalAlign=middle;resizable=0;points=[];autosize=1;strokeColor=none;fillColor=none;fontSize=20;fontFamily=Architects Daughter;" vertex="1" parent="1">
          <mxGeometry x="1771" y="863" width="125" height="36" as="geometry" />
        </mxCell>
        <mxCell id="Y8TYXMuornl3YtSkY_ep-52" value="ZenZoneApp (main)" style="text;html=1;strokeColor=none;fillColor=none;align=center;verticalAlign=middle;whiteSpace=wrap;rounded=0;fontSize=20;fontFamily=Architects Daughter;" vertex="1" parent="1">
          <mxGeometry x="152" y="1186" width="208" height="30" as="geometry" />
        </mxCell>
        <mxCell id="Y8TYXMuornl3YtSkY_ep-53" value="MySchedule" style="text;html=1;strokeColor=none;fillColor=none;align=center;verticalAlign=middle;whiteSpace=wrap;rounded=0;fontSize=20;fontFamily=Architects Daughter;" vertex="1" parent="1">
          <mxGeometry x="415" y="1186" width="208" height="30" as="geometry" />
        </mxCell>
        <mxCell id="Y8TYXMuornl3YtSkY_ep-54" value="Content View" style="text;html=1;strokeColor=none;fillColor=none;align=center;verticalAlign=middle;whiteSpace=wrap;rounded=0;fontSize=20;fontFamily=Architects Daughter;" vertex="1" parent="1">
          <mxGeometry x="633" y="1186" width="265" height="30" as="geometry" />
        </mxCell>
        <mxCell id="Y8TYXMuornl3YtSkY_ep-55" value="MyModel" style="text;html=1;strokeColor=none;fillColor=none;align=center;verticalAlign=middle;whiteSpace=wrap;rounded=0;fontSize=20;fontFamily=Architects Daughter;" vertex="1" parent="1">
          <mxGeometry x="949" y="1186" width="129" height="30" as="geometry" />
        </mxCell>
        <mxCell id="Y8TYXMuornl3YtSkY_ep-56" value="DeviceActivityMonitor" style="text;html=1;strokeColor=none;fillColor=none;align=center;verticalAlign=middle;whiteSpace=wrap;rounded=0;fontSize=20;fontFamily=Architects Daughter;" vertex="1" parent="1">
          <mxGeometry x="1149" y="1186" width="129" height="30" as="geometry" />
        </mxCell>
        <mxCell id="Y8TYXMuornl3YtSkY_ep-57" value="" style="endArrow=none;html=1;rounded=0;hachureGap=4;fontFamily=Architects Daughter;fontSource=https%3A%2F%2Ffonts.googleapis.com%2Fcss%3Ffamily%3DArchitects%2BDaughter;fontSize=16;strokeWidth=4;" edge="1" parent="1" source="Y8TYXMuornl3YtSkY_ep-95">
          <mxGeometry width="50" height="50" relative="1" as="geometry">
            <mxPoint x="660" y="1825" as="sourcePoint" />
            <mxPoint x="648" y="1189" as="targetPoint" />
          </mxGeometry>
        </mxCell>
        <mxCell id="Y8TYXMuornl3YtSkY_ep-58" value="" style="endArrow=none;html=1;rounded=0;hachureGap=4;fontFamily=Architects Daughter;fontSource=https%3A%2F%2Ffonts.googleapis.com%2Fcss%3Ffamily%3DArchitects%2BDaughter;fontSize=16;strokeWidth=4;" edge="1" parent="1">
          <mxGeometry width="50" height="50" relative="1" as="geometry">
            <mxPoint x="435" y="1831" as="sourcePoint" />
            <mxPoint x="423" y="1195" as="targetPoint" />
          </mxGeometry>
        </mxCell>
        <mxCell id="Y8TYXMuornl3YtSkY_ep-59" value="" style="endArrow=none;html=1;rounded=0;hachureGap=4;fontFamily=Architects Daughter;fontSource=https%3A%2F%2Ffonts.googleapis.com%2Fcss%3Ffamily%3DArchitects%2BDaughter;fontSize=16;strokeWidth=4;" edge="1" parent="1" source="Y8TYXMuornl3YtSkY_ep-98">
          <mxGeometry width="50" height="50" relative="1" as="geometry">
            <mxPoint x="918" y="1826" as="sourcePoint" />
            <mxPoint x="906" y="1190" as="targetPoint" />
          </mxGeometry>
        </mxCell>
        <mxCell id="Y8TYXMuornl3YtSkY_ep-60" value="" style="endArrow=none;html=1;rounded=0;hachureGap=4;fontFamily=Architects Daughter;fontSource=https%3A%2F%2Ffonts.googleapis.com%2Fcss%3Ffamily%3DArchitects%2BDaughter;fontSize=16;strokeWidth=4;" edge="1" parent="1">
          <mxGeometry width="50" height="50" relative="1" as="geometry">
            <mxPoint x="1107" y="1829" as="sourcePoint" />
            <mxPoint x="1095" y="1193" as="targetPoint" />
          </mxGeometry>
        </mxCell>
        <mxCell id="Y8TYXMuornl3YtSkY_ep-61" value="" style="endArrow=none;html=1;rounded=0;hachureGap=4;fontFamily=Architects Daughter;fontSource=https%3A%2F%2Ffonts.googleapis.com%2Fcss%3Ffamily%3DArchitects%2BDaughter;fontSize=16;exitX=0;exitY=1;exitDx=0;exitDy=0;strokeWidth=3;" edge="1" parent="1">
          <mxGeometry width="50" height="50" relative="1" as="geometry">
            <mxPoint x="149" y="1219" as="sourcePoint" />
            <mxPoint x="1952" y="1219" as="targetPoint" />
          </mxGeometry>
        </mxCell>
        <mxCell id="Y8TYXMuornl3YtSkY_ep-62" value="AuthorizationCenter" style="text;html=1;align=center;verticalAlign=middle;resizable=0;points=[];autosize=1;strokeColor=none;fillColor=none;fontSize=20;fontFamily=Architects Daughter;" vertex="1" parent="1">
          <mxGeometry x="1378" y="1180" width="202" height="36" as="geometry" />
        </mxCell>
        <mxCell id="Y8TYXMuornl3YtSkY_ep-63" value="" style="endArrow=none;html=1;rounded=0;hachureGap=4;fontFamily=Architects Daughter;fontSource=https%3A%2F%2Ffonts.googleapis.com%2Fcss%3Ffamily%3DArchitects%2BDaughter;fontSize=16;strokeWidth=4;" edge="1" parent="1">
          <mxGeometry width="50" height="50" relative="1" as="geometry">
            <mxPoint x="1362" y="1822" as="sourcePoint" />
            <mxPoint x="1350" y="1186" as="targetPoint" />
          </mxGeometry>
        </mxCell>
        <mxCell id="Y8TYXMuornl3YtSkY_ep-64" value="" style="endArrow=classic;html=1;rounded=0;sketch=1;hachureGap=4;jiggle=2;curveFitting=1;fontFamily=Architects Daughter;fontSource=https%3A%2F%2Ffonts.googleapis.com%2Fcss%3Ffamily%3DArchitects%2BDaughter;fontSize=16;" edge="1" parent="1">
          <mxGeometry width="50" height="50" relative="1" as="geometry">
            <mxPoint x="250" y="1281" as="sourcePoint" />
            <mxPoint x="1518" y="1274" as="targetPoint" />
          </mxGeometry>
        </mxCell>
        <mxCell id="Y8TYXMuornl3YtSkY_ep-65" value="&lt;font style=&quot;font-size: 13px;&quot;&gt;Request Access to screen-time&lt;/font&gt;" style="text;html=1;strokeColor=none;fillColor=none;align=center;verticalAlign=middle;whiteSpace=wrap;rounded=0;fontSize=20;fontFamily=Architects Daughter;" vertex="1" parent="1">
          <mxGeometry x="222" y="1240" width="199" height="30" as="geometry" />
        </mxCell>
        <mxCell id="Y8TYXMuornl3YtSkY_ep-66" style="edgeStyle=orthogonalEdgeStyle;rounded=0;sketch=1;hachureGap=4;jiggle=2;curveFitting=1;orthogonalLoop=1;jettySize=auto;html=1;exitX=0;exitY=1;exitDx=0;exitDy=0;fontFamily=Architects Daughter;fontSource=https%3A%2F%2Ffonts.googleapis.com%2Fcss%3Ffamily%3DArchitects%2BDaughter;fontSize=16;endArrow=none;endFill=0;" edge="1" parent="1" source="Y8TYXMuornl3YtSkY_ep-67">
          <mxGeometry relative="1" as="geometry">
            <mxPoint x="243.70588235294144" y="1371.4705882352941" as="targetPoint" />
          </mxGeometry>
        </mxCell>
        <mxCell id="Y8TYXMuornl3YtSkY_ep-67" value="" style="rounded=1;whiteSpace=wrap;html=1;sketch=1;hachureGap=4;jiggle=2;curveFitting=1;fontFamily=Architects Daughter;fontSource=https%3A%2F%2Ffonts.googleapis.com%2Fcss%3Ffamily%3DArchitects%2BDaughter;fontSize=20;" vertex="1" parent="1">
          <mxGeometry x="1519" y="1270" width="14" height="60" as="geometry" />
        </mxCell>
        <mxCell id="Y8TYXMuornl3YtSkY_ep-68" style="edgeStyle=orthogonalEdgeStyle;rounded=0;sketch=1;hachureGap=4;jiggle=2;curveFitting=1;orthogonalLoop=1;jettySize=auto;html=1;exitX=0.5;exitY=1;exitDx=0;exitDy=0;fontFamily=Architects Daughter;fontSource=https%3A%2F%2Ffonts.googleapis.com%2Fcss%3Ffamily%3DArchitects%2BDaughter;fontSize=16;" edge="1" parent="1">
          <mxGeometry relative="1" as="geometry">
            <mxPoint x="312.99999999999955" y="1476" as="sourcePoint" />
            <mxPoint x="312.99999999999955" y="1476" as="targetPoint" />
          </mxGeometry>
        </mxCell>
        <mxCell id="Y8TYXMuornl3YtSkY_ep-69" value="Add Schedule (UI)" style="text;html=1;align=center;verticalAlign=middle;resizable=0;points=[];autosize=1;strokeColor=none;fillColor=none;fontSize=20;fontFamily=Architects Daughter;" vertex="1" parent="1">
          <mxGeometry x="694" y="1424" width="175" height="36" as="geometry" />
        </mxCell>
        <mxCell id="Y8TYXMuornl3YtSkY_ep-70" value="" style="endArrow=classic;html=1;rounded=0;sketch=1;hachureGap=4;jiggle=2;curveFitting=1;fontFamily=Architects Daughter;fontSource=https%3A%2F%2Ffonts.googleapis.com%2Fcss%3Ffamily%3DArchitects%2BDaughter;fontSize=16;" edge="1" parent="1">
          <mxGeometry width="50" height="50" relative="1" as="geometry">
            <mxPoint x="784" y="1469" as="sourcePoint" />
            <mxPoint x="552" y="1469" as="targetPoint" />
          </mxGeometry>
        </mxCell>
        <mxCell id="Y8TYXMuornl3YtSkY_ep-71" value="" style="rounded=1;whiteSpace=wrap;html=1;sketch=1;hachureGap=4;jiggle=2;curveFitting=1;fontFamily=Architects Daughter;fontSource=https%3A%2F%2Ffonts.googleapis.com%2Fcss%3Ffamily%3DArchitects%2BDaughter;fontSize=20;fillColor=#008a00;fontColor=#ffffff;strokeColor=#005700;" vertex="1" parent="1">
          <mxGeometry x="532" y="1465" width="16" height="60" as="geometry" />
        </mxCell>
        <mxCell id="Y8TYXMuornl3YtSkY_ep-72" value="&lt;h1&gt;HOMEWORK APP FLOW - MULTIPLE SCHEDULES&lt;/h1&gt;" style="text;html=1;strokeColor=none;fillColor=none;spacing=5;spacingTop=-20;whiteSpace=wrap;overflow=hidden;rounded=0;fontSize=20;fontFamily=Architects Daughter;" vertex="1" parent="1">
          <mxGeometry x="127" y="1016" width="1087" height="120" as="geometry" />
        </mxCell>
        <mxCell id="Y8TYXMuornl3YtSkY_ep-74" value="" style="endArrow=classic;html=1;rounded=0;sketch=1;hachureGap=4;jiggle=2;curveFitting=1;fontFamily=Architects Daughter;fontSource=https%3A%2F%2Ffonts.googleapis.com%2Fcss%3Ffamily%3DArchitects%2BDaughter;fontSize=16;" edge="1" parent="1">
          <mxGeometry width="50" height="50" relative="1" as="geometry">
            <mxPoint x="792" y="1550" as="sourcePoint" />
            <mxPoint x="954" y="1550" as="targetPoint" />
          </mxGeometry>
        </mxCell>
        <mxCell id="Y8TYXMuornl3YtSkY_ep-75" value="" style="rounded=1;whiteSpace=wrap;html=1;sketch=1;hachureGap=4;jiggle=2;curveFitting=1;fontFamily=Architects Daughter;fontSource=https%3A%2F%2Ffonts.googleapis.com%2Fcss%3Ffamily%3DArchitects%2BDaughter;fontSize=20;fillColor=#d80073;fontColor=#ffffff;strokeColor=#A50040;" vertex="1" parent="1">
          <mxGeometry x="956" y="1546" width="16" height="60" as="geometry" />
        </mxCell>
        <mxCell id="Y8TYXMuornl3YtSkY_ep-76" value="ManagedSettingsStore" style="text;html=1;align=center;verticalAlign=middle;resizable=0;points=[];autosize=1;strokeColor=none;fillColor=none;fontSize=20;fontFamily=Architects Daughter;" vertex="1" parent="1">
          <mxGeometry x="1680" y="1175" width="224" height="36" as="geometry" />
        </mxCell>
        <mxCell id="Y8TYXMuornl3YtSkY_ep-77" value="" style="endArrow=none;html=1;rounded=0;hachureGap=4;fontFamily=Architects Daughter;fontSource=https%3A%2F%2Ffonts.googleapis.com%2Fcss%3Ffamily%3DArchitects%2BDaughter;fontSize=16;strokeWidth=4;" edge="1" parent="1">
          <mxGeometry width="50" height="50" relative="1" as="geometry">
            <mxPoint x="1643" y="1819" as="sourcePoint" />
            <mxPoint x="1631" y="1183" as="targetPoint" />
          </mxGeometry>
        </mxCell>
        <mxCell id="Y8TYXMuornl3YtSkY_ep-78" value="" style="rounded=1;whiteSpace=wrap;html=1;sketch=1;hachureGap=4;jiggle=2;curveFitting=1;fontFamily=Architects Daughter;fontSource=https%3A%2F%2Ffonts.googleapis.com%2Fcss%3Ffamily%3DArchitects%2BDaughter;fontSize=20;" vertex="1" parent="1">
          <mxGeometry x="1769" y="1627" width="14" height="60" as="geometry" />
        </mxCell>
        <mxCell id="Y8TYXMuornl3YtSkY_ep-79" value="Set Shield&amp;nbsp;" style="text;html=1;align=center;verticalAlign=middle;resizable=0;points=[];autosize=1;strokeColor=none;fillColor=none;fontSize=20;fontFamily=Architects Daughter;" vertex="1" parent="1">
          <mxGeometry x="1797" y="1627" width="116" height="36" as="geometry" />
        </mxCell>
        <mxCell id="Y8TYXMuornl3YtSkY_ep-80" style="edgeStyle=orthogonalEdgeStyle;rounded=0;sketch=1;hachureGap=4;jiggle=2;curveFitting=1;orthogonalLoop=1;jettySize=auto;html=1;exitX=0.5;exitY=1;exitDx=0;exitDy=0;entryX=1;entryY=0.5;entryDx=0;entryDy=0;fontFamily=Architects Daughter;fontSource=https%3A%2F%2Ffonts.googleapis.com%2Fcss%3Ffamily%3DArchitects%2BDaughter;fontSize=16;" edge="1" parent="1" source="Y8TYXMuornl3YtSkY_ep-81" target="Y8TYXMuornl3YtSkY_ep-83">
          <mxGeometry relative="1" as="geometry" />
        </mxCell>
        <mxCell id="Y8TYXMuornl3YtSkY_ep-81" value="OnStart" style="text;html=1;strokeColor=none;fillColor=none;align=center;verticalAlign=middle;whiteSpace=wrap;rounded=0;fontSize=20;fontFamily=Architects Daughter;" vertex="1" parent="1">
          <mxGeometry x="1152" y="1673" width="60" height="30" as="geometry" />
        </mxCell>
        <mxCell id="Y8TYXMuornl3YtSkY_ep-82" style="edgeStyle=orthogonalEdgeStyle;rounded=0;sketch=1;hachureGap=4;jiggle=2;curveFitting=1;orthogonalLoop=1;jettySize=auto;html=1;exitX=1;exitY=1;exitDx=0;exitDy=0;entryX=0;entryY=1;entryDx=0;entryDy=0;fontFamily=Architects Daughter;fontSource=https%3A%2F%2Ffonts.googleapis.com%2Fcss%3Ffamily%3DArchitects%2BDaughter;fontSize=16;" edge="1" parent="1" source="Y8TYXMuornl3YtSkY_ep-83" target="Y8TYXMuornl3YtSkY_ep-86">
          <mxGeometry relative="1" as="geometry" />
        </mxCell>
        <mxCell id="Y8TYXMuornl3YtSkY_ep-100" style="edgeStyle=orthogonalEdgeStyle;rounded=0;sketch=1;hachureGap=4;jiggle=2;curveFitting=1;orthogonalLoop=1;jettySize=auto;html=1;fontFamily=Architects Daughter;fontSource=https%3A%2F%2Ffonts.googleapis.com%2Fcss%3Ffamily%3DArchitects%2BDaughter;fontSize=16;" edge="1" parent="1" source="Y8TYXMuornl3YtSkY_ep-83" target="Y8TYXMuornl3YtSkY_ep-84">
          <mxGeometry relative="1" as="geometry" />
        </mxCell>
        <mxCell id="Y8TYXMuornl3YtSkY_ep-83" value="" style="rounded=1;whiteSpace=wrap;html=1;sketch=1;hachureGap=4;jiggle=2;curveFitting=1;fontFamily=Architects Daughter;fontSource=https%3A%2F%2Ffonts.googleapis.com%2Fcss%3Ffamily%3DArchitects%2BDaughter;fontSize=20;fillColor=#d80073;fontColor=#ffffff;strokeColor=#A50040;" vertex="1" parent="1">
          <mxGeometry x="980" y="1687" width="16" height="60" as="geometry" />
        </mxCell>
        <mxCell id="Y8TYXMuornl3YtSkY_ep-84" value="&lt;font style=&quot;font-size: 16px;&quot;&gt;Get Apps via deviceActivityName&lt;/font&gt;" style="text;html=1;align=center;verticalAlign=middle;resizable=0;points=[];autosize=1;strokeColor=#6F0000;fillColor=#a20025;fontSize=20;fontFamily=Architects Daughter;rotation=-90;fontColor=#ffffff;" vertex="1" parent="1">
          <mxGeometry x="829" y="1731" width="259" height="36" as="geometry" />
        </mxCell>
        <mxCell id="Y8TYXMuornl3YtSkY_ep-85" style="edgeStyle=orthogonalEdgeStyle;rounded=0;sketch=1;hachureGap=4;jiggle=2;curveFitting=1;orthogonalLoop=1;jettySize=auto;html=1;exitX=1;exitY=0.5;exitDx=0;exitDy=0;entryX=0;entryY=0.5;entryDx=0;entryDy=0;fontFamily=Architects Daughter;fontSource=https%3A%2F%2Ffonts.googleapis.com%2Fcss%3Ffamily%3DArchitects%2BDaughter;fontSize=16;" edge="1" parent="1" source="Y8TYXMuornl3YtSkY_ep-86" target="Y8TYXMuornl3YtSkY_ep-78">
          <mxGeometry relative="1" as="geometry" />
        </mxCell>
        <mxCell id="Y8TYXMuornl3YtSkY_ep-86" value="" style="rounded=1;whiteSpace=wrap;html=1;sketch=1;hachureGap=4;jiggle=2;curveFitting=1;fontFamily=Architects Daughter;fontSource=https%3A%2F%2Ffonts.googleapis.com%2Fcss%3Ffamily%3DArchitects%2BDaughter;fontSize=20;" vertex="1" parent="1">
          <mxGeometry x="1187" y="1711" width="16" height="60" as="geometry" />
        </mxCell>
        <mxCell id="Y8TYXMuornl3YtSkY_ep-87" value="OnEnd" style="text;html=1;align=center;verticalAlign=middle;resizable=0;points=[];autosize=1;strokeColor=none;fillColor=none;fontSize=20;fontFamily=Architects Daughter;" vertex="1" parent="1">
          <mxGeometry x="1149" y="1831" width="74" height="36" as="geometry" />
        </mxCell>
        <mxCell id="Y8TYXMuornl3YtSkY_ep-88" style="edgeStyle=orthogonalEdgeStyle;rounded=0;sketch=1;hachureGap=4;jiggle=2;curveFitting=1;orthogonalLoop=1;jettySize=auto;html=1;exitX=1;exitY=0.5;exitDx=0;exitDy=0;fontFamily=Architects Daughter;fontSource=https%3A%2F%2Ffonts.googleapis.com%2Fcss%3Ffamily%3DArchitects%2BDaughter;fontSize=16;" edge="1" parent="1" source="Y8TYXMuornl3YtSkY_ep-89">
          <mxGeometry relative="1" as="geometry">
            <mxPoint x="1775.2222222222217" y="1896.5555555555557" as="targetPoint" />
          </mxGeometry>
        </mxCell>
        <mxCell id="Y8TYXMuornl3YtSkY_ep-89" value="" style="rounded=1;whiteSpace=wrap;html=1;sketch=1;hachureGap=4;jiggle=2;curveFitting=1;fontFamily=Architects Daughter;fontSource=https%3A%2F%2Ffonts.googleapis.com%2Fcss%3Ffamily%3DArchitects%2BDaughter;fontSize=20;" vertex="1" parent="1">
          <mxGeometry x="1181" y="1867" width="16" height="60" as="geometry" />
        </mxCell>
        <mxCell id="Y8TYXMuornl3YtSkY_ep-90" value="" style="rounded=1;whiteSpace=wrap;html=1;sketch=1;hachureGap=4;jiggle=2;curveFitting=1;fontFamily=Architects Daughter;fontSource=https%3A%2F%2Ffonts.googleapis.com%2Fcss%3Ffamily%3DArchitects%2BDaughter;fontSize=20;" vertex="1" parent="1">
          <mxGeometry x="1778" y="1871" width="14" height="60" as="geometry" />
        </mxCell>
        <mxCell id="Y8TYXMuornl3YtSkY_ep-91" value="Clear Shield" style="text;html=1;align=center;verticalAlign=middle;resizable=0;points=[];autosize=1;strokeColor=none;fillColor=none;fontSize=20;fontFamily=Architects Daughter;" vertex="1" parent="1">
          <mxGeometry x="1804" y="1871" width="125" height="36" as="geometry" />
        </mxCell>
        <mxCell id="Y8TYXMuornl3YtSkY_ep-92" value="Add Monitor" style="text;html=1;align=center;verticalAlign=middle;resizable=0;points=[];autosize=1;strokeColor=none;fillColor=none;fontSize=20;fontFamily=Architects Daughter;rotation=-90;" vertex="1" parent="1">
          <mxGeometry x="439" y="1489" width="131" height="36" as="geometry" />
        </mxCell>
        <mxCell id="Y8TYXMuornl3YtSkY_ep-93" value="" style="rounded=1;whiteSpace=wrap;html=1;sketch=1;hachureGap=4;jiggle=2;curveFitting=1;fontFamily=Architects Daughter;fontSource=https%3A%2F%2Ffonts.googleapis.com%2Fcss%3Ffamily%3DArchitects%2BDaughter;fontSize=20;fillColor=#60a917;fontColor=#ffffff;strokeColor=#2D7600;" vertex="1" parent="1">
          <mxGeometry x="773.5" y="1473" width="16" height="206" as="geometry" />
        </mxCell>
        <mxCell id="Y8TYXMuornl3YtSkY_ep-94" style="edgeStyle=orthogonalEdgeStyle;rounded=0;sketch=1;hachureGap=4;jiggle=2;curveFitting=1;orthogonalLoop=1;jettySize=auto;html=1;exitX=1;exitY=0.25;exitDx=0;exitDy=0;entryX=-0.358;entryY=0.056;entryDx=0;entryDy=0;entryPerimeter=0;fontFamily=Architects Daughter;fontSource=https%3A%2F%2Ffonts.googleapis.com%2Fcss%3Ffamily%3DArchitects%2BDaughter;fontSize=16;" edge="1" parent="1">
          <mxGeometry relative="1" as="geometry">
            <mxPoint x="548.0000000000005" y="1506.0500000000004" as="sourcePoint" />
            <mxPoint x="767.7719999999999" y="1507.954" as="targetPoint" />
            <Array as="points">
              <mxPoint x="658" y="1506" />
              <mxPoint x="658" y="1508" />
            </Array>
          </mxGeometry>
        </mxCell>
        <mxCell id="Y8TYXMuornl3YtSkY_ep-96" value="" style="endArrow=none;html=1;rounded=0;hachureGap=4;fontFamily=Architects Daughter;fontSource=https%3A%2F%2Ffonts.googleapis.com%2Fcss%3Ffamily%3DArchitects%2BDaughter;fontSize=16;strokeWidth=4;" edge="1" parent="1" target="Y8TYXMuornl3YtSkY_ep-95">
          <mxGeometry width="50" height="50" relative="1" as="geometry">
            <mxPoint x="660" y="1825" as="sourcePoint" />
            <mxPoint x="648" y="1189" as="targetPoint" />
          </mxGeometry>
        </mxCell>
        <mxCell id="Y8TYXMuornl3YtSkY_ep-95" value="return schedule object" style="text;html=1;align=center;verticalAlign=middle;resizable=0;points=[];autosize=1;strokeColor=none;fillColor=none;fontSize=20;fontFamily=Architects Daughter;" vertex="1" parent="1">
          <mxGeometry x="542.5" y="1473" width="231" height="36" as="geometry" />
        </mxCell>
        <mxCell id="Y8TYXMuornl3YtSkY_ep-97" value="&lt;font style=&quot;font-size: 15px;&quot;&gt;save {&lt;span style=&quot;white-space: pre;&quot;&gt;&#x9;&lt;/span&gt;deviceActivityName: blockedApps}&lt;/font&gt;" style="text;html=1;align=center;verticalAlign=middle;resizable=0;points=[];autosize=1;strokeColor=#3700CC;fillColor=#6a00ff;fontSize=20;fontFamily=Architects Daughter;fontColor=#ffffff;sketch=1;curveFitting=1;jiggle=2;" vertex="1" parent="1">
          <mxGeometry x="792" y="1499" width="301" height="36" as="geometry" />
        </mxCell>
        <mxCell id="Y8TYXMuornl3YtSkY_ep-99" value="" style="endArrow=none;html=1;rounded=0;hachureGap=4;fontFamily=Architects Daughter;fontSource=https%3A%2F%2Ffonts.googleapis.com%2Fcss%3Ffamily%3DArchitects%2BDaughter;fontSize=16;strokeWidth=4;" edge="1" parent="1" target="Y8TYXMuornl3YtSkY_ep-98">
          <mxGeometry width="50" height="50" relative="1" as="geometry">
            <mxPoint x="918" y="1826" as="sourcePoint" />
            <mxPoint x="906" y="1190" as="targetPoint" />
          </mxGeometry>
        </mxCell>
        <mxCell id="Y8TYXMuornl3YtSkY_ep-98" value="&lt;font color=&quot;#990099&quot; style=&quot;font-size: 13px; background-color: rgb(217, 255, 25);&quot;&gt;unique activity name (until add block groups)&lt;/font&gt;" style="text;html=1;align=center;verticalAlign=middle;resizable=0;points=[];autosize=1;strokeColor=none;fillColor=none;fontSize=20;fontFamily=Architects Daughter;" vertex="1" parent="1">
          <mxGeometry x="770" y="1469" width="283" height="36" as="geometry" />
        </mxCell>
      </root>
    </mxGraphModel>
  </diagram>
</mxfile>
